<svg class="railroad-diagram" height="80" viewBox="0 0 591.5 80" width="591.5"> <g transform="translate(.5 .5)"> <g> <path d="M20 30v20m10 -20v20m-10 -10h20" /></g><path d="M40 40h10" /><g> <path d="M50 40h0.0" /><path d="M541.5 40h0.0" /><g class="non-terminal "> <path d="M50.0 40h0.0" /><path d="M214.5 40h0.0" /><rect height="22" width="164.5" x="50" y="29"></rect><text x="132.25" y="44">UPPER_CASE_LETTER</text></g><path d="M214.5 40h10" /><g> <path d="M224.5 40h0.0" /><path d="M449.0 40h0.0" /><path d="M224.5 40a10 10 0 0 0 10 -10v0a10 10 0 0 1 10 -10" /><g> <path d="M244.5 20h184.5" /></g><path d="M429.0 20a10 10 0 0 1 10 10v0a10 10 0 0 0 10 10" /><path d="M224.5 40h20" /><g> <path d="M244.5 40h0.0" /><path d="M429.0 40h0.0" /><path d="M244.5 40h10" /><g class="non-terminal "> <path d="M254.5 40h0.0" /><path d="M419.0 40h0.0" /><rect height="22" width="164.5" x="254.5" y="29"></rect><text x="336.75" y="44">LOWER_CASE_LETTER</text></g><path d="M419.0 40h10" /><path d="M254.5 40a10 10 0 0 0 -10 10v0a10 10 0 0 0 10 10" /><g> <path d="M254.5 60h164.5" /></g><path d="M419.0 60a10 10 0 0 0 10 -10v0a10 10 0 0 0 -10 -10" /></g><path d="M429.0 40h20" /></g><path d="M449.0 40h10" /><g> <path d="M459.0 40h0.0" /><path d="M541.5 40h0.0" /><path d="M459.0 40h10" /><g class="non-terminal "> <path d="M469.0 40h0.0" /><path d="M531.5 40h0.0" /><rect height="22" width="62.5" x="469" y="29"></rect><text x="500.25" y="44">DIGIT</text></g><path d="M531.5 40h10" /><path d="M469.0 40a10 10 0 0 0 -10 10v0a10 10 0 0 0 10 10" /><g> <path d="M469.0 60h62.5" /></g><path d="M531.5 60a10 10 0 0 0 10 -10v0a10 10 0 0 0 -10 -10" /></g></g><path d="M541.5 40h10" /><path d="M 551.5 40 h 20 m -10 -10 v 20 m 10 -20 v 20"></path></g></svg>