<svg class="railroad-diagram" height="80" viewBox="0 0 621.5 80" width="621.5" xmlns="http://www.w3.org/2000/svg" xmlns:xlink="http://www.w3.org/1999/xlink">
<g transform="translate(.5 .5)">
<g data-x="Start w:20 h:10/0/10">
<path d="M20 30v20m10 -20v20m-10 -10h20" /></g><path d="M40 40h10" /><g data-x="Sequence w:521.5 h:20/0/20">
<path d="M50 40h0.0" /><path d="M571.5 40h0.0" /><g class="non-terminal " data-x="NonTerminal w:164.5 h:11/0/11">
<path d="M50.0 40h0.0" /><path d="M214.5 40h0.0" /><rect height="22" width="164.5" x="50" y="29"></rect><text x="132.25" y="44">UPPER_CASE_LETTER</text></g><path d="M214.5 40h10" /><g data-x="Choice w:224.5 h:20/0/20">
<path d="M224.5 40h0.0" /><path d="M449.0 40h0.0" /><path d="M224.5 40a10 10 0 0 0 10 -10v0a10 10 0 0 1 10 -10" /><g data-x="Skip w:0 h:0/0/0">
<path d="M244.5 20h184.5" /></g><path d="M429.0 20a10 10 0 0 1 10 10v0a10 10 0 0 0 10 10" /><path d="M224.5 40h20" /><g data-x="OneOrMore w:184.5 h:11/0/20">
<path d="M244.5 40h0.0" /><path d="M429.0 40h0.0" /><path d="M244.5 40h10" /><g class="non-terminal " data-x="NonTerminal w:164.5 h:11/0/11">
<path d="M254.5 40h0.0" /><path d="M419.0 40h0.0" /><rect height="22" width="164.5" x="254.5" y="29"></rect><text x="336.75" y="44">LOWER_CASE_LETTER</text></g><path d="M419.0 40h10" /><path d="M254.5 40a10 10 0 0 0 -10 10v0a10 10 0 0 0 10 10" /><g data-x="Skip w:0 h:0/0/0">
<path d="M254.5 60h164.5" /></g><path d="M419.0 60a10 10 0 0 0 10 -10v0a10 10 0 0 0 -10 -10" /></g><path d="M429.0 40h20" /></g><g data-x="Choice w:122.5 h:20/0/20">
<path d="M449.0 40h0.0" /><path d="M571.5 40h0.0" /><path d="M449.0 40a10 10 0 0 0 10 -10v0a10 10 0 0 1 10 -10" /><g data-x="Skip w:0 h:0/0/0">
<path d="M469.0 20h82.5" /></g><path d="M551.5 20a10 10 0 0 1 10 10v0a10 10 0 0 0 10 10" /><path d="M449.0 40h20" /><g data-x="OneOrMore w:82.5 h:11/0/20">
<path d="M469.0 40h0.0" /><path d="M551.5 40h0.0" /><path d="M469.0 40h10" /><g class="non-terminal " data-x="NonTerminal w:62.5 h:11/0/11">
<path d="M479.0 40h0.0" /><path d="M541.5 40h0.0" /><rect height="22" width="62.5" x="479" y="29"></rect><text x="510.25" y="44">DIGIT</text></g><path d="M541.5 40h10" /><path d="M479.0 40a10 10 0 0 0 -10 10v0a10 10 0 0 0 10 10" /><g data-x="Skip w:0 h:0/0/0">
<path d="M479.0 60h62.5" /></g><path d="M541.5 60a10 10 0 0 0 10 -10v0a10 10 0 0 0 -10 -10" /></g><path d="M551.5 40h20" /></g></g><path d="M571.5 40h10" /><path d="M 581.5 40 h 20 m -10 -10 v 20 m 10 -20 v 20" data-x="End w:20 h:10/0/10"></path></g><style>/* <![CDATA[ */
	svg.railroad-diagram {
		background-color:hsl(30,20%,95%);
	}
	svg.railroad-diagram path {
		stroke-width:3;
		stroke:black;
		fill:rgba(0,0,0,0);
	}
	svg.railroad-diagram text {
		font:bold 14px monospace;
		text-anchor:middle;
	}
	svg.railroad-diagram text.label{
		text-anchor:start;
	}
	svg.railroad-diagram text.comment{
		font:italic 12px monospace;
	}
	svg.railroad-diagram rect{
		stroke-width:3;
		stroke:black;
		fill:hsl(120,100%,90%);
	}
	svg.railroad-diagram rect.group-box {
		stroke: gray;
		stroke-dasharray: 10 5;
		fill: none;
	}

/* ]]> */
</style></svg>