<svg class="railroad-diagram" height="122" viewBox="0 0 284.5 122" width="284.5"> <g transform="translate(.5 .5)"> <g> <path d="M20 21v20m10 -20v20m-10 -10h20" /></g><g> <path d="M40 31h0.0" /><path d="M244.5 31h0.0" /><path d="M40.0 31h20" /><g class="non-terminal "> <path d="M60.0 31h51.0" /><path d="M173.5 31h51.0" /><rect height="22" width="62.5" x="111" y="20"></rect><text x="142.25" y="35">DIGIT</text></g><path d="M224.5 31h20" /><path d="M40.0 31a10 10 0 0 1 10 10v10a10 10 0 0 0 10 10" /><g class="non-terminal "> <path d="M60.0 61h0.0" /><path d="M224.5 61h0.0" /><rect height="22" width="164.5" x="60" y="50"></rect><text x="142.25" y="65">UPPER_CASE_LETTER</text></g><path d="M224.5 61a10 10 0 0 0 10 -10v-10a10 10 0 0 1 10 -10" /><path d="M40.0 31a10 10 0 0 1 10 10v40a10 10 0 0 0 10 10" /><g class="non-terminal "> <path d="M60.0 91h0.0" /><path d="M224.5 91h0.0" /><rect height="22" width="164.5" x="60" y="80"></rect><text x="142.25" y="95">LOWER_CASE_LETTER</text></g><path d="M224.5 91a10 10 0 0 0 10 -10v-40a10 10 0 0 1 10 -10" /></g><path d="M 244.5 31 h 20 m -10 -10 v 20 m 10 -20 v 20"></path></g></svg>