<svg class="railroad-diagram" height="3602" viewBox="0 0 165.5 3602" width="165.5"> <g transform="translate(.5 .5)"> <g> <path d="M20 21v20m10 -20v20m-10 -10h20" /></g><g> <path d="M40 31h0.0" /><path d="M125.5 31h0.0" /><path d="M40.0 31h20" /><g class="terminal "> <path d="M60.0 31h4.25" /><path d="M101.25 31h4.25" /><rect height="22" rx="10" ry="10" width="37" x="64.25" y="20"></rect><text x="82.75" y="35">Ac</text></g><path d="M105.5 31h20" /><path d="M40.0 31a10 10 0 0 1 10 10v10a10 10 0 0 0 10 10" /><g class="terminal "> <path d="M60.0 61h4.25" /><path d="M101.25 61h4.25" /><rect height="22" rx="10" ry="10" width="37" x="64.25" y="50"></rect><text x="82.75" y="65">Ag</text></g><path d="M105.5 61a10 10 0 0 0 10 -10v-10a10 10 0 0 1 10 -10" /><path d="M40.0 31a10 10 0 0 1 10 10v40a10 10 0 0 0 10 10" /><g class="terminal "> <path d="M60.0 91h4.25" /><path d="M101.25 91h4.25" /><rect height="22" rx="10" ry="10" width="37" x="64.25" y="80"></rect><text x="82.75" y="95">Al</text></g><path d="M105.5 91a10 10 0 0 0 10 -10v-40a10 10 0 0 1 10 -10" /><path d="M40.0 31a10 10 0 0 1 10 10v70a10 10 0 0 0 10 10" /><g class="terminal "> <path d="M60.0 121h4.25" /><path d="M101.25 121h4.25" /><rect height="22" rx="10" ry="10" width="37" x="64.25" y="110"></rect><text x="82.75" y="125">Am</text></g><path d="M105.5 121a10 10 0 0 0 10 -10v-70a10 10 0 0 1 10 -10" /><path d="M40.0 31a10 10 0 0 1 10 10v100a10 10 0 0 0 10 10" /><g class="terminal "> <path d="M60.0 151h4.25" /><path d="M101.25 151h4.25" /><rect height="22" rx="10" ry="10" width="37" x="64.25" y="140"></rect><text x="82.75" y="155">Ar</text></g><path d="M105.5 151a10 10 0 0 0 10 -10v-100a10 10 0 0 1 10 -10" /><path d="M40.0 31a10 10 0 0 1 10 10v130a10 10 0 0 0 10 10" /><g class="terminal "> <path d="M60.0 181h4.25" /><path d="M101.25 181h4.25" /><rect height="22" rx="10" ry="10" width="37" x="64.25" y="170"></rect><text x="82.75" y="185">As</text></g><path d="M105.5 181a10 10 0 0 0 10 -10v-130a10 10 0 0 1 10 -10" /><path d="M40.0 31a10 10 0 0 1 10 10v160a10 10 0 0 0 10 10" /><g class="terminal "> <path d="M60.0 211h4.25" /><path d="M101.25 211h4.25" /><rect height="22" rx="10" ry="10" width="37" x="64.25" y="200"></rect><text x="82.75" y="215">At</text></g><path d="M105.5 211a10 10 0 0 0 10 -10v-160a10 10 0 0 1 10 -10" /><path d="M40.0 31a10 10 0 0 1 10 10v190a10 10 0 0 0 10 10" /><g class="terminal "> <path d="M60.0 241h4.25" /><path d="M101.25 241h4.25" /><rect height="22" rx="10" ry="10" width="37" x="64.25" y="230"></rect><text x="82.75" y="245">Au</text></g><path d="M105.5 241a10 10 0 0 0 10 -10v-190a10 10 0 0 1 10 -10" /><path d="M40.0 31a10 10 0 0 1 10 10v220a10 10 0 0 0 10 10" /><g class="terminal "> <path d="M60.0 271h8.5" /><path d="M97.0 271h8.5" /><rect height="22" rx="10" ry="10" width="28.5" x="68.5" y="260"></rect><text x="82.75" y="275">B</text></g><path d="M105.5 271a10 10 0 0 0 10 -10v-220a10 10 0 0 1 10 -10" /><path d="M40.0 31a10 10 0 0 1 10 10v250a10 10 0 0 0 10 10" /><g class="terminal "> <path d="M60.0 301h4.25" /><path d="M101.25 301h4.25" /><rect height="22" rx="10" ry="10" width="37" x="64.25" y="290"></rect><text x="82.75" y="305">Ba</text></g><path d="M105.5 301a10 10 0 0 0 10 -10v-250a10 10 0 0 1 10 -10" /><path d="M40.0 31a10 10 0 0 1 10 10v280a10 10 0 0 0 10 10" /><g class="terminal "> <path d="M60.0 331h4.25" /><path d="M101.25 331h4.25" /><rect height="22" rx="10" ry="10" width="37" x="64.25" y="320"></rect><text x="82.75" y="335">Be</text></g><path d="M105.5 331a10 10 0 0 0 10 -10v-280a10 10 0 0 1 10 -10" /><path d="M40.0 31a10 10 0 0 1 10 10v310a10 10 0 0 0 10 10" /><g class="terminal "> <path d="M60.0 361h4.25" /><path d="M101.25 361h4.25" /><rect height="22" rx="10" ry="10" width="37" x="64.25" y="350"></rect><text x="82.75" y="365">Bh</text></g><path d="M105.5 361a10 10 0 0 0 10 -10v-310a10 10 0 0 1 10 -10" /><path d="M40.0 31a10 10 0 0 1 10 10v340a10 10 0 0 0 10 10" /><g class="terminal "> <path d="M60.0 391h4.25" /><path d="M101.25 391h4.25" /><rect height="22" rx="10" ry="10" width="37" x="64.25" y="380"></rect><text x="82.75" y="395">Bi</text></g><path d="M105.5 391a10 10 0 0 0 10 -10v-340a10 10 0 0 1 10 -10" /><path d="M40.0 31a10 10 0 0 1 10 10v370a10 10 0 0 0 10 10" /><g class="terminal "> <path d="M60.0 421h4.25" /><path d="M101.25 421h4.25" /><rect height="22" rx="10" ry="10" width="37" x="64.25" y="410"></rect><text x="82.75" y="425">Bk</text></g><path d="M105.5 421a10 10 0 0 0 10 -10v-370a10 10 0 0 1 10 -10" /><path d="M40.0 31a10 10 0 0 1 10 10v400a10 10 0 0 0 10 10" /><g class="terminal "> <path d="M60.0 451h4.25" /><path d="M101.25 451h4.25" /><rect height="22" rx="10" ry="10" width="37" x="64.25" y="440"></rect><text x="82.75" y="455">Br</text></g><path d="M105.5 451a10 10 0 0 0 10 -10v-400a10 10 0 0 1 10 -10" /><path d="M40.0 31a10 10 0 0 1 10 10v430a10 10 0 0 0 10 10" /><g class="terminal "> <path d="M60.0 481h8.5" /><path d="M97.0 481h8.5" /><rect height="22" rx="10" ry="10" width="28.5" x="68.5" y="470"></rect><text x="82.75" y="485">C</text></g><path d="M105.5 481a10 10 0 0 0 10 -10v-430a10 10 0 0 1 10 -10" /><path d="M40.0 31a10 10 0 0 1 10 10v460a10 10 0 0 0 10 10" /><g class="terminal "> <path d="M60.0 511h4.25" /><path d="M101.25 511h4.25" /><rect height="22" rx="10" ry="10" width="37" x="64.25" y="500"></rect><text x="82.75" y="515">Ca</text></g><path d="M105.5 511a10 10 0 0 0 10 -10v-460a10 10 0 0 1 10 -10" /><path d="M40.0 31a10 10 0 0 1 10 10v490a10 10 0 0 0 10 10" /><g class="terminal "> <path d="M60.0 541h4.25" /><path d="M101.25 541h4.25" /><rect height="22" rx="10" ry="10" width="37" x="64.25" y="530"></rect><text x="82.75" y="545">Cd</text></g><path d="M105.5 541a10 10 0 0 0 10 -10v-490a10 10 0 0 1 10 -10" /><path d="M40.0 31a10 10 0 0 1 10 10v520a10 10 0 0 0 10 10" /><g class="terminal "> <path d="M60.0 571h4.25" /><path d="M101.25 571h4.25" /><rect height="22" rx="10" ry="10" width="37" x="64.25" y="560"></rect><text x="82.75" y="575">Ce</text></g><path d="M105.5 571a10 10 0 0 0 10 -10v-520a10 10 0 0 1 10 -10" /><path d="M40.0 31a10 10 0 0 1 10 10v550a10 10 0 0 0 10 10" /><g class="terminal "> <path d="M60.0 601h4.25" /><path d="M101.25 601h4.25" /><rect height="22" rx="10" ry="10" width="37" x="64.25" y="590"></rect><text x="82.75" y="605">Cf</text></g><path d="M105.5 601a10 10 0 0 0 10 -10v-550a10 10 0 0 1 10 -10" /><path d="M40.0 31a10 10 0 0 1 10 10v580a10 10 0 0 0 10 10" /><g class="terminal "> <path d="M60.0 631h4.25" /><path d="M101.25 631h4.25" /><rect height="22" rx="10" ry="10" width="37" x="64.25" y="620"></rect><text x="82.75" y="635">Cl</text></g><path d="M105.5 631a10 10 0 0 0 10 -10v-580a10 10 0 0 1 10 -10" /><path d="M40.0 31a10 10 0 0 1 10 10v610a10 10 0 0 0 10 10" /><g class="terminal "> <path d="M60.0 661h4.25" /><path d="M101.25 661h4.25" /><rect height="22" rx="10" ry="10" width="37" x="64.25" y="650"></rect><text x="82.75" y="665">Cm</text></g><path d="M105.5 661a10 10 0 0 0 10 -10v-610a10 10 0 0 1 10 -10" /><path d="M40.0 31a10 10 0 0 1 10 10v640a10 10 0 0 0 10 10" /><g class="terminal "> <path d="M60.0 691h4.25" /><path d="M101.25 691h4.25" /><rect height="22" rx="10" ry="10" width="37" x="64.25" y="680"></rect><text x="82.75" y="695">Cn</text></g><path d="M105.5 691a10 10 0 0 0 10 -10v-640a10 10 0 0 1 10 -10" /><path d="M40.0 31a10 10 0 0 1 10 10v670a10 10 0 0 0 10 10" /><g class="terminal "> <path d="M60.0 721h4.25" /><path d="M101.25 721h4.25" /><rect height="22" rx="10" ry="10" width="37" x="64.25" y="710"></rect><text x="82.75" y="725">Co</text></g><path d="M105.5 721a10 10 0 0 0 10 -10v-670a10 10 0 0 1 10 -10" /><path d="M40.0 31a10 10 0 0 1 10 10v700a10 10 0 0 0 10 10" /><g class="terminal "> <path d="M60.0 751h4.25" /><path d="M101.25 751h4.25" /><rect height="22" rx="10" ry="10" width="37" x="64.25" y="740"></rect><text x="82.75" y="755">Cr</text></g><path d="M105.5 751a10 10 0 0 0 10 -10v-700a10 10 0 0 1 10 -10" /><path d="M40.0 31a10 10 0 0 1 10 10v730a10 10 0 0 0 10 10" /><g class="terminal "> <path d="M60.0 781h4.25" /><path d="M101.25 781h4.25" /><rect height="22" rx="10" ry="10" width="37" x="64.25" y="770"></rect><text x="82.75" y="785">Cs</text></g><path d="M105.5 781a10 10 0 0 0 10 -10v-730a10 10 0 0 1 10 -10" /><path d="M40.0 31a10 10 0 0 1 10 10v760a10 10 0 0 0 10 10" /><g class="terminal "> <path d="M60.0 811h4.25" /><path d="M101.25 811h4.25" /><rect height="22" rx="10" ry="10" width="37" x="64.25" y="800"></rect><text x="82.75" y="815">Cu</text></g><path d="M105.5 811a10 10 0 0 0 10 -10v-760a10 10 0 0 1 10 -10" /><path d="M40.0 31a10 10 0 0 1 10 10v790a10 10 0 0 0 10 10" /><g class="terminal "> <path d="M60.0 841h4.25" /><path d="M101.25 841h4.25" /><rect height="22" rx="10" ry="10" width="37" x="64.25" y="830"></rect><text x="82.75" y="845">Db</text></g><path d="M105.5 841a10 10 0 0 0 10 -10v-790a10 10 0 0 1 10 -10" /><path d="M40.0 31a10 10 0 0 1 10 10v820a10 10 0 0 0 10 10" /><g class="terminal "> <path d="M60.0 871h4.25" /><path d="M101.25 871h4.25" /><rect height="22" rx="10" ry="10" width="37" x="64.25" y="860"></rect><text x="82.75" y="875">Ds</text></g><path d="M105.5 871a10 10 0 0 0 10 -10v-820a10 10 0 0 1 10 -10" /><path d="M40.0 31a10 10 0 0 1 10 10v850a10 10 0 0 0 10 10" /><g class="terminal "> <path d="M60.0 901h4.25" /><path d="M101.25 901h4.25" /><rect height="22" rx="10" ry="10" width="37" x="64.25" y="890"></rect><text x="82.75" y="905">Dy</text></g><path d="M105.5 901a10 10 0 0 0 10 -10v-850a10 10 0 0 1 10 -10" /><path d="M40.0 31a10 10 0 0 1 10 10v880a10 10 0 0 0 10 10" /><g class="terminal "> <path d="M60.0 931h4.25" /><path d="M101.25 931h4.25" /><rect height="22" rx="10" ry="10" width="37" x="64.25" y="920"></rect><text x="82.75" y="935">Er</text></g><path d="M105.5 931a10 10 0 0 0 10 -10v-880a10 10 0 0 1 10 -10" /><path d="M40.0 31a10 10 0 0 1 10 10v910a10 10 0 0 0 10 10" /><g class="terminal "> <path d="M60.0 961h4.25" /><path d="M101.25 961h4.25" /><rect height="22" rx="10" ry="10" width="37" x="64.25" y="950"></rect><text x="82.75" y="965">Es</text></g><path d="M105.5 961a10 10 0 0 0 10 -10v-910a10 10 0 0 1 10 -10" /><path d="M40.0 31a10 10 0 0 1 10 10v940a10 10 0 0 0 10 10" /><g class="terminal "> <path d="M60.0 991h4.25" /><path d="M101.25 991h4.25" /><rect height="22" rx="10" ry="10" width="37" x="64.25" y="980"></rect><text x="82.75" y="995">Eu</text></g><path d="M105.5 991a10 10 0 0 0 10 -10v-940a10 10 0 0 1 10 -10" /><path d="M40.0 31a10 10 0 0 1 10 10v970a10 10 0 0 0 10 10" /><g class="terminal "> <path d="M60.0 1021h8.5" /><path d="M97.0 1021h8.5" /><rect height="22" rx="10" ry="10" width="28.5" x="68.5" y="1010"></rect><text x="82.75" y="1025">F</text></g><path d="M105.5 1021a10 10 0 0 0 10 -10v-970a10 10 0 0 1 10 -10" /><path d="M40.0 31a10 10 0 0 1 10 10v1000a10 10 0 0 0 10 10" /><g class="terminal "> <path d="M60.0 1051h4.25" /><path d="M101.25 1051h4.25" /><rect height="22" rx="10" ry="10" width="37" x="64.25" y="1040"></rect><text x="82.75" y="1055">Fe</text></g><path d="M105.5 1051a10 10 0 0 0 10 -10v-1000a10 10 0 0 1 10 -10" /><path d="M40.0 31a10 10 0 0 1 10 10v1030a10 10 0 0 0 10 10" /><g class="terminal "> <path d="M60.0 1081h4.25" /><path d="M101.25 1081h4.25" /><rect height="22" rx="10" ry="10" width="37" x="64.25" y="1070"></rect><text x="82.75" y="1085">Fm</text></g><path d="M105.5 1081a10 10 0 0 0 10 -10v-1030a10 10 0 0 1 10 -10" /><path d="M40.0 31a10 10 0 0 1 10 10v1060a10 10 0 0 0 10 10" /><g class="terminal "> <path d="M60.0 1111h4.25" /><path d="M101.25 1111h4.25" /><rect height="22" rx="10" ry="10" width="37" x="64.25" y="1100"></rect><text x="82.75" y="1115">Fr</text></g><path d="M105.5 1111a10 10 0 0 0 10 -10v-1060a10 10 0 0 1 10 -10" /><path d="M40.0 31a10 10 0 0 1 10 10v1090a10 10 0 0 0 10 10" /><g class="terminal "> <path d="M60.0 1141h4.25" /><path d="M101.25 1141h4.25" /><rect height="22" rx="10" ry="10" width="37" x="64.25" y="1130"></rect><text x="82.75" y="1145">Ga</text></g><path d="M105.5 1141a10 10 0 0 0 10 -10v-1090a10 10 0 0 1 10 -10" /><path d="M40.0 31a10 10 0 0 1 10 10v1120a10 10 0 0 0 10 10" /><g class="terminal "> <path d="M60.0 1171h4.25" /><path d="M101.25 1171h4.25" /><rect height="22" rx="10" ry="10" width="37" x="64.25" y="1160"></rect><text x="82.75" y="1175">Gd</text></g><path d="M105.5 1171a10 10 0 0 0 10 -10v-1120a10 10 0 0 1 10 -10" /><path d="M40.0 31a10 10 0 0 1 10 10v1150a10 10 0 0 0 10 10" /><g class="terminal "> <path d="M60.0 1201h4.25" /><path d="M101.25 1201h4.25" /><rect height="22" rx="10" ry="10" width="37" x="64.25" y="1190"></rect><text x="82.75" y="1205">Ge</text></g><path d="M105.5 1201a10 10 0 0 0 10 -10v-1150a10 10 0 0 1 10 -10" /><path d="M40.0 31a10 10 0 0 1 10 10v1180a10 10 0 0 0 10 10" /><g class="terminal "> <path d="M60.0 1231h8.5" /><path d="M97.0 1231h8.5" /><rect height="22" rx="10" ry="10" width="28.5" x="68.5" y="1220"></rect><text x="82.75" y="1235">H</text></g><path d="M105.5 1231a10 10 0 0 0 10 -10v-1180a10 10 0 0 1 10 -10" /><path d="M40.0 31a10 10 0 0 1 10 10v1210a10 10 0 0 0 10 10" /><g class="terminal "> <path d="M60.0 1261h4.25" /><path d="M101.25 1261h4.25" /><rect height="22" rx="10" ry="10" width="37" x="64.25" y="1250"></rect><text x="82.75" y="1265">H+</text></g><path d="M105.5 1261a10 10 0 0 0 10 -10v-1210a10 10 0 0 1 10 -10" /><path d="M40.0 31a10 10 0 0 1 10 10v1240a10 10 0 0 0 10 10" /><g class="terminal "> <path d="M60.0 1291h4.25" /><path d="M101.25 1291h4.25" /><rect height="22" rx="10" ry="10" width="37" x="64.25" y="1280"></rect><text x="82.75" y="1295">He</text></g><path d="M105.5 1291a10 10 0 0 0 10 -10v-1240a10 10 0 0 1 10 -10" /><path d="M40.0 31a10 10 0 0 1 10 10v1270a10 10 0 0 0 10 10" /><g class="terminal "> <path d="M60.0 1321h4.25" /><path d="M101.25 1321h4.25" /><rect height="22" rx="10" ry="10" width="37" x="64.25" y="1310"></rect><text x="82.75" y="1325">Hf</text></g><path d="M105.5 1321a10 10 0 0 0 10 -10v-1270a10 10 0 0 1 10 -10" /><path d="M40.0 31a10 10 0 0 1 10 10v1300a10 10 0 0 0 10 10" /><g class="terminal "> <path d="M60.0 1351h4.25" /><path d="M101.25 1351h4.25" /><rect height="22" rx="10" ry="10" width="37" x="64.25" y="1340"></rect><text x="82.75" y="1355">Hg</text></g><path d="M105.5 1351a10 10 0 0 0 10 -10v-1300a10 10 0 0 1 10 -10" /><path d="M40.0 31a10 10 0 0 1 10 10v1330a10 10 0 0 0 10 10" /><g class="terminal "> <path d="M60.0 1381h4.25" /><path d="M101.25 1381h4.25" /><rect height="22" rx="10" ry="10" width="37" x="64.25" y="1370"></rect><text x="82.75" y="1385">Ho</text></g><path d="M105.5 1381a10 10 0 0 0 10 -10v-1330a10 10 0 0 1 10 -10" /><path d="M40.0 31a10 10 0 0 1 10 10v1360a10 10 0 0 0 10 10" /><g class="terminal "> <path d="M60.0 1411h4.25" /><path d="M101.25 1411h4.25" /><rect height="22" rx="10" ry="10" width="37" x="64.25" y="1400"></rect><text x="82.75" y="1415">Hs</text></g><path d="M105.5 1411a10 10 0 0 0 10 -10v-1360a10 10 0 0 1 10 -10" /><path d="M40.0 31a10 10 0 0 1 10 10v1390a10 10 0 0 0 10 10" /><g class="terminal "> <path d="M60.0 1441h8.5" /><path d="M97.0 1441h8.5" /><rect height="22" rx="10" ry="10" width="28.5" x="68.5" y="1430"></rect><text x="82.75" y="1445">I</text></g><path d="M105.5 1441a10 10 0 0 0 10 -10v-1390a10 10 0 0 1 10 -10" /><path d="M40.0 31a10 10 0 0 1 10 10v1420a10 10 0 0 0 10 10" /><g class="terminal "> <path d="M60.0 1471h4.25" /><path d="M101.25 1471h4.25" /><rect height="22" rx="10" ry="10" width="37" x="64.25" y="1460"></rect><text x="82.75" y="1475">In</text></g><path d="M105.5 1471a10 10 0 0 0 10 -10v-1420a10 10 0 0 1 10 -10" /><path d="M40.0 31a10 10 0 0 1 10 10v1450a10 10 0 0 0 10 10" /><g class="terminal "> <path d="M60.0 1501h4.25" /><path d="M101.25 1501h4.25" /><rect height="22" rx="10" ry="10" width="37" x="64.25" y="1490"></rect><text x="82.75" y="1505">Ir</text></g><path d="M105.5 1501a10 10 0 0 0 10 -10v-1450a10 10 0 0 1 10 -10" /><path d="M40.0 31a10 10 0 0 1 10 10v1480a10 10 0 0 0 10 10" /><g class="terminal "> <path d="M60.0 1531h8.5" /><path d="M97.0 1531h8.5" /><rect height="22" rx="10" ry="10" width="28.5" x="68.5" y="1520"></rect><text x="82.75" y="1535">K</text></g><path d="M105.5 1531a10 10 0 0 0 10 -10v-1480a10 10 0 0 1 10 -10" /><path d="M40.0 31a10 10 0 0 1 10 10v1510a10 10 0 0 0 10 10" /><g class="terminal "> <path d="M60.0 1561h4.25" /><path d="M101.25 1561h4.25" /><rect height="22" rx="10" ry="10" width="37" x="64.25" y="1550"></rect><text x="82.75" y="1565">Kr</text></g><path d="M105.5 1561a10 10 0 0 0 10 -10v-1510a10 10 0 0 1 10 -10" /><path d="M40.0 31a10 10 0 0 1 10 10v1540a10 10 0 0 0 10 10" /><g class="terminal "> <path d="M60.0 1591h4.25" /><path d="M101.25 1591h4.25" /><rect height="22" rx="10" ry="10" width="37" x="64.25" y="1580"></rect><text x="82.75" y="1595">La</text></g><path d="M105.5 1591a10 10 0 0 0 10 -10v-1540a10 10 0 0 1 10 -10" /><path d="M40.0 31a10 10 0 0 1 10 10v1570a10 10 0 0 0 10 10" /><g class="terminal "> <path d="M60.0 1621h4.25" /><path d="M101.25 1621h4.25" /><rect height="22" rx="10" ry="10" width="37" x="64.25" y="1610"></rect><text x="82.75" y="1625">Li</text></g><path d="M105.5 1621a10 10 0 0 0 10 -10v-1570a10 10 0 0 1 10 -10" /><path d="M40.0 31a10 10 0 0 1 10 10v1600a10 10 0 0 0 10 10" /><g class="terminal "> <path d="M60.0 1651h4.25" /><path d="M101.25 1651h4.25" /><rect height="22" rx="10" ry="10" width="37" x="64.25" y="1640"></rect><text x="82.75" y="1655">Lr</text></g><path d="M105.5 1651a10 10 0 0 0 10 -10v-1600a10 10 0 0 1 10 -10" /><path d="M40.0 31a10 10 0 0 1 10 10v1630a10 10 0 0 0 10 10" /><g class="terminal "> <path d="M60.0 1681h4.25" /><path d="M101.25 1681h4.25" /><rect height="22" rx="10" ry="10" width="37" x="64.25" y="1670"></rect><text x="82.75" y="1685">Lu</text></g><path d="M105.5 1681a10 10 0 0 0 10 -10v-1630a10 10 0 0 1 10 -10" /><path d="M40.0 31a10 10 0 0 1 10 10v1660a10 10 0 0 0 10 10" /><g class="terminal "> <path d="M60.0 1711h4.25" /><path d="M101.25 1711h4.25" /><rect height="22" rx="10" ry="10" width="37" x="64.25" y="1700"></rect><text x="82.75" y="1715">Md</text></g><path d="M105.5 1711a10 10 0 0 0 10 -10v-1660a10 10 0 0 1 10 -10" /><path d="M40.0 31a10 10 0 0 1 10 10v1690a10 10 0 0 0 10 10" /><g class="terminal "> <path d="M60.0 1741h4.25" /><path d="M101.25 1741h4.25" /><rect height="22" rx="10" ry="10" width="37" x="64.25" y="1730"></rect><text x="82.75" y="1745">Mg</text></g><path d="M105.5 1741a10 10 0 0 0 10 -10v-1690a10 10 0 0 1 10 -10" /><path d="M40.0 31a10 10 0 0 1 10 10v1720a10 10 0 0 0 10 10" /><g class="terminal "> <path d="M60.0 1771h4.25" /><path d="M101.25 1771h4.25" /><rect height="22" rx="10" ry="10" width="37" x="64.25" y="1760"></rect><text x="82.75" y="1775">Mn</text></g><path d="M105.5 1771a10 10 0 0 0 10 -10v-1720a10 10 0 0 1 10 -10" /><path d="M40.0 31a10 10 0 0 1 10 10v1750a10 10 0 0 0 10 10" /><g class="terminal "> <path d="M60.0 1801h4.25" /><path d="M101.25 1801h4.25" /><rect height="22" rx="10" ry="10" width="37" x="64.25" y="1790"></rect><text x="82.75" y="1805">Mo</text></g><path d="M105.5 1801a10 10 0 0 0 10 -10v-1750a10 10 0 0 1 10 -10" /><path d="M40.0 31a10 10 0 0 1 10 10v1780a10 10 0 0 0 10 10" /><g class="terminal "> <path d="M60.0 1831h4.25" /><path d="M101.25 1831h4.25" /><rect height="22" rx="10" ry="10" width="37" x="64.25" y="1820"></rect><text x="82.75" y="1835">Mt</text></g><path d="M105.5 1831a10 10 0 0 0 10 -10v-1780a10 10 0 0 1 10 -10" /><path d="M40.0 31a10 10 0 0 1 10 10v1810a10 10 0 0 0 10 10" /><g class="terminal "> <path d="M60.0 1861h8.5" /><path d="M97.0 1861h8.5" /><rect height="22" rx="10" ry="10" width="28.5" x="68.5" y="1850"></rect><text x="82.75" y="1865">N</text></g><path d="M105.5 1861a10 10 0 0 0 10 -10v-1810a10 10 0 0 1 10 -10" /><path d="M40.0 31a10 10 0 0 1 10 10v1840a10 10 0 0 0 10 10" /><g class="terminal "> <path d="M60.0 1891h4.25" /><path d="M101.25 1891h4.25" /><rect height="22" rx="10" ry="10" width="37" x="64.25" y="1880"></rect><text x="82.75" y="1895">Na</text></g><path d="M105.5 1891a10 10 0 0 0 10 -10v-1840a10 10 0 0 1 10 -10" /><path d="M40.0 31a10 10 0 0 1 10 10v1870a10 10 0 0 0 10 10" /><g class="terminal "> <path d="M60.0 1921h4.25" /><path d="M101.25 1921h4.25" /><rect height="22" rx="10" ry="10" width="37" x="64.25" y="1910"></rect><text x="82.75" y="1925">Nb</text></g><path d="M105.5 1921a10 10 0 0 0 10 -10v-1870a10 10 0 0 1 10 -10" /><path d="M40.0 31a10 10 0 0 1 10 10v1900a10 10 0 0 0 10 10" /><g class="terminal "> <path d="M60.0 1951h4.25" /><path d="M101.25 1951h4.25" /><rect height="22" rx="10" ry="10" width="37" x="64.25" y="1940"></rect><text x="82.75" y="1955">Nd</text></g><path d="M105.5 1951a10 10 0 0 0 10 -10v-1900a10 10 0 0 1 10 -10" /><path d="M40.0 31a10 10 0 0 1 10 10v1930a10 10 0 0 0 10 10" /><g class="terminal "> <path d="M60.0 1981h4.25" /><path d="M101.25 1981h4.25" /><rect height="22" rx="10" ry="10" width="37" x="64.25" y="1970"></rect><text x="82.75" y="1985">Ne</text></g><path d="M105.5 1981a10 10 0 0 0 10 -10v-1930a10 10 0 0 1 10 -10" /><path d="M40.0 31a10 10 0 0 1 10 10v1960a10 10 0 0 0 10 10" /><g class="terminal "> <path d="M60.0 2011h4.25" /><path d="M101.25 2011h4.25" /><rect height="22" rx="10" ry="10" width="37" x="64.25" y="2000"></rect><text x="82.75" y="2015">Ni</text></g><path d="M105.5 2011a10 10 0 0 0 10 -10v-1960a10 10 0 0 1 10 -10" /><path d="M40.0 31a10 10 0 0 1 10 10v1990a10 10 0 0 0 10 10" /><g class="terminal "> <path d="M60.0 2041h4.25" /><path d="M101.25 2041h4.25" /><rect height="22" rx="10" ry="10" width="37" x="64.25" y="2030"></rect><text x="82.75" y="2045">No</text></g><path d="M105.5 2041a10 10 0 0 0 10 -10v-1990a10 10 0 0 1 10 -10" /><path d="M40.0 31a10 10 0 0 1 10 10v2020a10 10 0 0 0 10 10" /><g class="terminal "> <path d="M60.0 2071h4.25" /><path d="M101.25 2071h4.25" /><rect height="22" rx="10" ry="10" width="37" x="64.25" y="2060"></rect><text x="82.75" y="2075">Np</text></g><path d="M105.5 2071a10 10 0 0 0 10 -10v-2020a10 10 0 0 1 10 -10" /><path d="M40.0 31a10 10 0 0 1 10 10v2050a10 10 0 0 0 10 10" /><g class="terminal "> <path d="M60.0 2101h8.5" /><path d="M97.0 2101h8.5" /><rect height="22" rx="10" ry="10" width="28.5" x="68.5" y="2090"></rect><text x="82.75" y="2105">O</text></g><path d="M105.5 2101a10 10 0 0 0 10 -10v-2050a10 10 0 0 1 10 -10" /><path d="M40.0 31a10 10 0 0 1 10 10v2080a10 10 0 0 0 10 10" /><g class="terminal "> <path d="M60.0 2131h4.25" /><path d="M101.25 2131h4.25" /><rect height="22" rx="10" ry="10" width="37" x="64.25" y="2120"></rect><text x="82.75" y="2135">Os</text></g><path d="M105.5 2131a10 10 0 0 0 10 -10v-2080a10 10 0 0 1 10 -10" /><path d="M40.0 31a10 10 0 0 1 10 10v2110a10 10 0 0 0 10 10" /><g class="terminal "> <path d="M60.0 2161h8.5" /><path d="M97.0 2161h8.5" /><rect height="22" rx="10" ry="10" width="28.5" x="68.5" y="2150"></rect><text x="82.75" y="2165">P</text></g><path d="M105.5 2161a10 10 0 0 0 10 -10v-2110a10 10 0 0 1 10 -10" /><path d="M40.0 31a10 10 0 0 1 10 10v2140a10 10 0 0 0 10 10" /><g class="terminal "> <path d="M60.0 2191h4.25" /><path d="M101.25 2191h4.25" /><rect height="22" rx="10" ry="10" width="37" x="64.25" y="2180"></rect><text x="82.75" y="2195">Pa</text></g><path d="M105.5 2191a10 10 0 0 0 10 -10v-2140a10 10 0 0 1 10 -10" /><path d="M40.0 31a10 10 0 0 1 10 10v2170a10 10 0 0 0 10 10" /><g class="terminal "> <path d="M60.0 2221h4.25" /><path d="M101.25 2221h4.25" /><rect height="22" rx="10" ry="10" width="37" x="64.25" y="2210"></rect><text x="82.75" y="2225">Pb</text></g><path d="M105.5 2221a10 10 0 0 0 10 -10v-2170a10 10 0 0 1 10 -10" /><path d="M40.0 31a10 10 0 0 1 10 10v2200a10 10 0 0 0 10 10" /><g class="terminal "> <path d="M60.0 2251h4.25" /><path d="M101.25 2251h4.25" /><rect height="22" rx="10" ry="10" width="37" x="64.25" y="2240"></rect><text x="82.75" y="2255">Pd</text></g><path d="M105.5 2251a10 10 0 0 0 10 -10v-2200a10 10 0 0 1 10 -10" /><path d="M40.0 31a10 10 0 0 1 10 10v2230a10 10 0 0 0 10 10" /><g class="terminal "> <path d="M60.0 2281h4.25" /><path d="M101.25 2281h4.25" /><rect height="22" rx="10" ry="10" width="37" x="64.25" y="2270"></rect><text x="82.75" y="2285">Pm</text></g><path d="M105.5 2281a10 10 0 0 0 10 -10v-2230a10 10 0 0 1 10 -10" /><path d="M40.0 31a10 10 0 0 1 10 10v2260a10 10 0 0 0 10 10" /><g class="terminal "> <path d="M60.0 2311h4.25" /><path d="M101.25 2311h4.25" /><rect height="22" rx="10" ry="10" width="37" x="64.25" y="2300"></rect><text x="82.75" y="2315">Po</text></g><path d="M105.5 2311a10 10 0 0 0 10 -10v-2260a10 10 0 0 1 10 -10" /><path d="M40.0 31a10 10 0 0 1 10 10v2290a10 10 0 0 0 10 10" /><g class="terminal "> <path d="M60.0 2341h4.25" /><path d="M101.25 2341h4.25" /><rect height="22" rx="10" ry="10" width="37" x="64.25" y="2330"></rect><text x="82.75" y="2345">Pr</text></g><path d="M105.5 2341a10 10 0 0 0 10 -10v-2290a10 10 0 0 1 10 -10" /><path d="M40.0 31a10 10 0 0 1 10 10v2320a10 10 0 0 0 10 10" /><g class="terminal "> <path d="M60.0 2371h4.25" /><path d="M101.25 2371h4.25" /><rect height="22" rx="10" ry="10" width="37" x="64.25" y="2360"></rect><text x="82.75" y="2375">Pt</text></g><path d="M105.5 2371a10 10 0 0 0 10 -10v-2320a10 10 0 0 1 10 -10" /><path d="M40.0 31a10 10 0 0 1 10 10v2350a10 10 0 0 0 10 10" /><g class="terminal "> <path d="M60.0 2401h4.25" /><path d="M101.25 2401h4.25" /><rect height="22" rx="10" ry="10" width="37" x="64.25" y="2390"></rect><text x="82.75" y="2405">Pu</text></g><path d="M105.5 2401a10 10 0 0 0 10 -10v-2350a10 10 0 0 1 10 -10" /><path d="M40.0 31a10 10 0 0 1 10 10v2380a10 10 0 0 0 10 10" /><g class="terminal "> <path d="M60.0 2431h4.25" /><path d="M101.25 2431h4.25" /><rect height="22" rx="10" ry="10" width="37" x="64.25" y="2420"></rect><text x="82.75" y="2435">Ra</text></g><path d="M105.5 2431a10 10 0 0 0 10 -10v-2380a10 10 0 0 1 10 -10" /><path d="M40.0 31a10 10 0 0 1 10 10v2410a10 10 0 0 0 10 10" /><g class="terminal "> <path d="M60.0 2461h4.25" /><path d="M101.25 2461h4.25" /><rect height="22" rx="10" ry="10" width="37" x="64.25" y="2450"></rect><text x="82.75" y="2465">Rb</text></g><path d="M105.5 2461a10 10 0 0 0 10 -10v-2410a10 10 0 0 1 10 -10" /><path d="M40.0 31a10 10 0 0 1 10 10v2440a10 10 0 0 0 10 10" /><g class="terminal "> <path d="M60.0 2491h4.25" /><path d="M101.25 2491h4.25" /><rect height="22" rx="10" ry="10" width="37" x="64.25" y="2480"></rect><text x="82.75" y="2495">Re</text></g><path d="M105.5 2491a10 10 0 0 0 10 -10v-2440a10 10 0 0 1 10 -10" /><path d="M40.0 31a10 10 0 0 1 10 10v2470a10 10 0 0 0 10 10" /><g class="terminal "> <path d="M60.0 2521h4.25" /><path d="M101.25 2521h4.25" /><rect height="22" rx="10" ry="10" width="37" x="64.25" y="2510"></rect><text x="82.75" y="2525">Rf</text></g><path d="M105.5 2521a10 10 0 0 0 10 -10v-2470a10 10 0 0 1 10 -10" /><path d="M40.0 31a10 10 0 0 1 10 10v2500a10 10 0 0 0 10 10" /><g class="terminal "> <path d="M60.0 2551h4.25" /><path d="M101.25 2551h4.25" /><rect height="22" rx="10" ry="10" width="37" x="64.25" y="2540"></rect><text x="82.75" y="2555">Rg</text></g><path d="M105.5 2551a10 10 0 0 0 10 -10v-2500a10 10 0 0 1 10 -10" /><path d="M40.0 31a10 10 0 0 1 10 10v2530a10 10 0 0 0 10 10" /><g class="terminal "> <path d="M60.0 2581h4.25" /><path d="M101.25 2581h4.25" /><rect height="22" rx="10" ry="10" width="37" x="64.25" y="2570"></rect><text x="82.75" y="2585">Rh</text></g><path d="M105.5 2581a10 10 0 0 0 10 -10v-2530a10 10 0 0 1 10 -10" /><path d="M40.0 31a10 10 0 0 1 10 10v2560a10 10 0 0 0 10 10" /><g class="terminal "> <path d="M60.0 2611h4.25" /><path d="M101.25 2611h4.25" /><rect height="22" rx="10" ry="10" width="37" x="64.25" y="2600"></rect><text x="82.75" y="2615">Rn</text></g><path d="M105.5 2611a10 10 0 0 0 10 -10v-2560a10 10 0 0 1 10 -10" /><path d="M40.0 31a10 10 0 0 1 10 10v2590a10 10 0 0 0 10 10" /><g class="terminal "> <path d="M60.0 2641h4.25" /><path d="M101.25 2641h4.25" /><rect height="22" rx="10" ry="10" width="37" x="64.25" y="2630"></rect><text x="82.75" y="2645">Ru</text></g><path d="M105.5 2641a10 10 0 0 0 10 -10v-2590a10 10 0 0 1 10 -10" /><path d="M40.0 31a10 10 0 0 1 10 10v2620a10 10 0 0 0 10 10" /><g class="terminal "> <path d="M60.0 2671h8.5" /><path d="M97.0 2671h8.5" /><rect height="22" rx="10" ry="10" width="28.5" x="68.5" y="2660"></rect><text x="82.75" y="2675">S</text></g><path d="M105.5 2671a10 10 0 0 0 10 -10v-2620a10 10 0 0 1 10 -10" /><path d="M40.0 31a10 10 0 0 1 10 10v2650a10 10 0 0 0 10 10" /><g class="terminal "> <path d="M60.0 2701h4.25" /><path d="M101.25 2701h4.25" /><rect height="22" rx="10" ry="10" width="37" x="64.25" y="2690"></rect><text x="82.75" y="2705">Sb</text></g><path d="M105.5 2701a10 10 0 0 0 10 -10v-2650a10 10 0 0 1 10 -10" /><path d="M40.0 31a10 10 0 0 1 10 10v2680a10 10 0 0 0 10 10" /><g class="terminal "> <path d="M60.0 2731h4.25" /><path d="M101.25 2731h4.25" /><rect height="22" rx="10" ry="10" width="37" x="64.25" y="2720"></rect><text x="82.75" y="2735">Sc</text></g><path d="M105.5 2731a10 10 0 0 0 10 -10v-2680a10 10 0 0 1 10 -10" /><path d="M40.0 31a10 10 0 0 1 10 10v2710a10 10 0 0 0 10 10" /><g class="terminal "> <path d="M60.0 2761h4.25" /><path d="M101.25 2761h4.25" /><rect height="22" rx="10" ry="10" width="37" x="64.25" y="2750"></rect><text x="82.75" y="2765">Se</text></g><path d="M105.5 2761a10 10 0 0 0 10 -10v-2710a10 10 0 0 1 10 -10" /><path d="M40.0 31a10 10 0 0 1 10 10v2740a10 10 0 0 0 10 10" /><g class="terminal "> <path d="M60.0 2791h4.25" /><path d="M101.25 2791h4.25" /><rect height="22" rx="10" ry="10" width="37" x="64.25" y="2780"></rect><text x="82.75" y="2795">Sg</text></g><path d="M105.5 2791a10 10 0 0 0 10 -10v-2740a10 10 0 0 1 10 -10" /><path d="M40.0 31a10 10 0 0 1 10 10v2770a10 10 0 0 0 10 10" /><g class="terminal "> <path d="M60.0 2821h4.25" /><path d="M101.25 2821h4.25" /><rect height="22" rx="10" ry="10" width="37" x="64.25" y="2810"></rect><text x="82.75" y="2825">Si</text></g><path d="M105.5 2821a10 10 0 0 0 10 -10v-2770a10 10 0 0 1 10 -10" /><path d="M40.0 31a10 10 0 0 1 10 10v2800a10 10 0 0 0 10 10" /><g class="terminal "> <path d="M60.0 2851h4.25" /><path d="M101.25 2851h4.25" /><rect height="22" rx="10" ry="10" width="37" x="64.25" y="2840"></rect><text x="82.75" y="2855">Sm</text></g><path d="M105.5 2851a10 10 0 0 0 10 -10v-2800a10 10 0 0 1 10 -10" /><path d="M40.0 31a10 10 0 0 1 10 10v2830a10 10 0 0 0 10 10" /><g class="terminal "> <path d="M60.0 2881h4.25" /><path d="M101.25 2881h4.25" /><rect height="22" rx="10" ry="10" width="37" x="64.25" y="2870"></rect><text x="82.75" y="2885">Sn</text></g><path d="M105.5 2881a10 10 0 0 0 10 -10v-2830a10 10 0 0 1 10 -10" /><path d="M40.0 31a10 10 0 0 1 10 10v2860a10 10 0 0 0 10 10" /><g class="terminal "> <path d="M60.0 2911h4.25" /><path d="M101.25 2911h4.25" /><rect height="22" rx="10" ry="10" width="37" x="64.25" y="2900"></rect><text x="82.75" y="2915">Sr</text></g><path d="M105.5 2911a10 10 0 0 0 10 -10v-2860a10 10 0 0 1 10 -10" /><path d="M40.0 31a10 10 0 0 1 10 10v2890a10 10 0 0 0 10 10" /><g class="terminal "> <path d="M60.0 2941h4.25" /><path d="M101.25 2941h4.25" /><rect height="22" rx="10" ry="10" width="37" x="64.25" y="2930"></rect><text x="82.75" y="2945">Ta</text></g><path d="M105.5 2941a10 10 0 0 0 10 -10v-2890a10 10 0 0 1 10 -10" /><path d="M40.0 31a10 10 0 0 1 10 10v2920a10 10 0 0 0 10 10" /><g class="terminal "> <path d="M60.0 2971h4.25" /><path d="M101.25 2971h4.25" /><rect height="22" rx="10" ry="10" width="37" x="64.25" y="2960"></rect><text x="82.75" y="2975">Tb</text></g><path d="M105.5 2971a10 10 0 0 0 10 -10v-2920a10 10 0 0 1 10 -10" /><path d="M40.0 31a10 10 0 0 1 10 10v2950a10 10 0 0 0 10 10" /><g class="terminal "> <path d="M60.0 3001h4.25" /><path d="M101.25 3001h4.25" /><rect height="22" rx="10" ry="10" width="37" x="64.25" y="2990"></rect><text x="82.75" y="3005">Tc</text></g><path d="M105.5 3001a10 10 0 0 0 10 -10v-2950a10 10 0 0 1 10 -10" /><path d="M40.0 31a10 10 0 0 1 10 10v2980a10 10 0 0 0 10 10" /><g class="terminal "> <path d="M60.0 3031h4.25" /><path d="M101.25 3031h4.25" /><rect height="22" rx="10" ry="10" width="37" x="64.25" y="3020"></rect><text x="82.75" y="3035">Te</text></g><path d="M105.5 3031a10 10 0 0 0 10 -10v-2980a10 10 0 0 1 10 -10" /><path d="M40.0 31a10 10 0 0 1 10 10v3010a10 10 0 0 0 10 10" /><g class="terminal "> <path d="M60.0 3061h4.25" /><path d="M101.25 3061h4.25" /><rect height="22" rx="10" ry="10" width="37" x="64.25" y="3050"></rect><text x="82.75" y="3065">Th</text></g><path d="M105.5 3061a10 10 0 0 0 10 -10v-3010a10 10 0 0 1 10 -10" /><path d="M40.0 31a10 10 0 0 1 10 10v3040a10 10 0 0 0 10 10" /><g class="terminal "> <path d="M60.0 3091h4.25" /><path d="M101.25 3091h4.25" /><rect height="22" rx="10" ry="10" width="37" x="64.25" y="3080"></rect><text x="82.75" y="3095">Ti</text></g><path d="M105.5 3091a10 10 0 0 0 10 -10v-3040a10 10 0 0 1 10 -10" /><path d="M40.0 31a10 10 0 0 1 10 10v3070a10 10 0 0 0 10 10" /><g class="terminal "> <path d="M60.0 3121h4.25" /><path d="M101.25 3121h4.25" /><rect height="22" rx="10" ry="10" width="37" x="64.25" y="3110"></rect><text x="82.75" y="3125">Tl</text></g><path d="M105.5 3121a10 10 0 0 0 10 -10v-3070a10 10 0 0 1 10 -10" /><path d="M40.0 31a10 10 0 0 1 10 10v3100a10 10 0 0 0 10 10" /><g class="terminal "> <path d="M60.0 3151h4.25" /><path d="M101.25 3151h4.25" /><rect height="22" rx="10" ry="10" width="37" x="64.25" y="3140"></rect><text x="82.75" y="3155">Tm</text></g><path d="M105.5 3151a10 10 0 0 0 10 -10v-3100a10 10 0 0 1 10 -10" /><path d="M40.0 31a10 10 0 0 1 10 10v3130a10 10 0 0 0 10 10" /><g class="terminal "> <path d="M60.0 3181h8.5" /><path d="M97.0 3181h8.5" /><rect height="22" rx="10" ry="10" width="28.5" x="68.5" y="3170"></rect><text x="82.75" y="3185">U</text></g><path d="M105.5 3181a10 10 0 0 0 10 -10v-3130a10 10 0 0 1 10 -10" /><path d="M40.0 31a10 10 0 0 1 10 10v3160a10 10 0 0 0 10 10" /><g class="terminal "> <path d="M60.0 3211h0.0" /><path d="M105.5 3211h0.0" /><rect height="22" rx="10" ry="10" width="45.5" x="60" y="3200"></rect><text x="82.75" y="3215">Uuh</text></g><path d="M105.5 3211a10 10 0 0 0 10 -10v-3160a10 10 0 0 1 10 -10" /><path d="M40.0 31a10 10 0 0 1 10 10v3190a10 10 0 0 0 10 10" /><g class="terminal "> <path d="M60.0 3241h0.0" /><path d="M105.5 3241h0.0" /><rect height="22" rx="10" ry="10" width="45.5" x="60" y="3230"></rect><text x="82.75" y="3245">Uuo</text></g><path d="M105.5 3241a10 10 0 0 0 10 -10v-3190a10 10 0 0 1 10 -10" /><path d="M40.0 31a10 10 0 0 1 10 10v3220a10 10 0 0 0 10 10" /><g class="terminal "> <path d="M60.0 3271h0.0" /><path d="M105.5 3271h0.0" /><rect height="22" rx="10" ry="10" width="45.5" x="60" y="3260"></rect><text x="82.75" y="3275">Uup</text></g><path d="M105.5 3271a10 10 0 0 0 10 -10v-3220a10 10 0 0 1 10 -10" /><path d="M40.0 31a10 10 0 0 1 10 10v3250a10 10 0 0 0 10 10" /><g class="terminal "> <path d="M60.0 3301h0.0" /><path d="M105.5 3301h0.0" /><rect height="22" rx="10" ry="10" width="45.5" x="60" y="3290"></rect><text x="82.75" y="3305">Uuq</text></g><path d="M105.5 3301a10 10 0 0 0 10 -10v-3250a10 10 0 0 1 10 -10" /><path d="M40.0 31a10 10 0 0 1 10 10v3280a10 10 0 0 0 10 10" /><g class="terminal "> <path d="M60.0 3331h0.0" /><path d="M105.5 3331h0.0" /><rect height="22" rx="10" ry="10" width="45.5" x="60" y="3320"></rect><text x="82.75" y="3335">Uus</text></g><path d="M105.5 3331a10 10 0 0 0 10 -10v-3280a10 10 0 0 1 10 -10" /><path d="M40.0 31a10 10 0 0 1 10 10v3310a10 10 0 0 0 10 10" /><g class="terminal "> <path d="M60.0 3361h0.0" /><path d="M105.5 3361h0.0" /><rect height="22" rx="10" ry="10" width="45.5" x="60" y="3350"></rect><text x="82.75" y="3365">Uut</text></g><path d="M105.5 3361a10 10 0 0 0 10 -10v-3310a10 10 0 0 1 10 -10" /><path d="M40.0 31a10 10 0 0 1 10 10v3340a10 10 0 0 0 10 10" /><g class="terminal "> <path d="M60.0 3391h8.5" /><path d="M97.0 3391h8.5" /><rect height="22" rx="10" ry="10" width="28.5" x="68.5" y="3380"></rect><text x="82.75" y="3395">V</text></g><path d="M105.5 3391a10 10 0 0 0 10 -10v-3340a10 10 0 0 1 10 -10" /><path d="M40.0 31a10 10 0 0 1 10 10v3370a10 10 0 0 0 10 10" /><g class="terminal "> <path d="M60.0 3421h8.5" /><path d="M97.0 3421h8.5" /><rect height="22" rx="10" ry="10" width="28.5" x="68.5" y="3410"></rect><text x="82.75" y="3425">W</text></g><path d="M105.5 3421a10 10 0 0 0 10 -10v-3370a10 10 0 0 1 10 -10" /><path d="M40.0 31a10 10 0 0 1 10 10v3400a10 10 0 0 0 10 10" /><g class="terminal "> <path d="M60.0 3451h4.25" /><path d="M101.25 3451h4.25" /><rect height="22" rx="10" ry="10" width="37" x="64.25" y="3440"></rect><text x="82.75" y="3455">Xe</text></g><path d="M105.5 3451a10 10 0 0 0 10 -10v-3400a10 10 0 0 1 10 -10" /><path d="M40.0 31a10 10 0 0 1 10 10v3430a10 10 0 0 0 10 10" /><g class="terminal "> <path d="M60.0 3481h8.5" /><path d="M97.0 3481h8.5" /><rect height="22" rx="10" ry="10" width="28.5" x="68.5" y="3470"></rect><text x="82.75" y="3485">Y</text></g><path d="M105.5 3481a10 10 0 0 0 10 -10v-3430a10 10 0 0 1 10 -10" /><path d="M40.0 31a10 10 0 0 1 10 10v3460a10 10 0 0 0 10 10" /><g class="terminal "> <path d="M60.0 3511h4.25" /><path d="M101.25 3511h4.25" /><rect height="22" rx="10" ry="10" width="37" x="64.25" y="3500"></rect><text x="82.75" y="3515">Yb</text></g><path d="M105.5 3511a10 10 0 0 0 10 -10v-3460a10 10 0 0 1 10 -10" /><path d="M40.0 31a10 10 0 0 1 10 10v3490a10 10 0 0 0 10 10" /><g class="terminal "> <path d="M60.0 3541h4.25" /><path d="M101.25 3541h4.25" /><rect height="22" rx="10" ry="10" width="37" x="64.25" y="3530"></rect><text x="82.75" y="3545">Zn</text></g><path d="M105.5 3541a10 10 0 0 0 10 -10v-3490a10 10 0 0 1 10 -10" /><path d="M40.0 31a10 10 0 0 1 10 10v3520a10 10 0 0 0 10 10" /><g class="terminal "> <path d="M60.0 3571h4.25" /><path d="M101.25 3571h4.25" /><rect height="22" rx="10" ry="10" width="37" x="64.25" y="3560"></rect><text x="82.75" y="3575">Zr</text></g><path d="M105.5 3571a10 10 0 0 0 10 -10v-3520a10 10 0 0 1 10 -10" /></g><path d="M 125.5 31 h 20 m -10 -10 v 20 m 10 -20 v 20"></path></g></svg>