<svg class="railroad-diagram" height="80" viewBox="0 0 811.0 80" width="811.0" xmlns="http://www.w3.org/2000/svg" xmlns:xlink="http://www.w3.org/1999/xlink">
<g transform="translate(.5 .5)">
<g data-x="Start w:20 h:10/0/10">
<path d="M20 30v20m10 -20v20m-10 -10h20" /></g><path d="M40 40h10" /><g data-x="Sequence w:711.0 h:20/0/20">
<path d="M50 40h0.0" /><path d="M761.0 40h0.0" /><g class="terminal " data-x="Terminal w:28.5 h:11/0/11">
<path d="M50.0 40h0.0" /><path d="M78.5 40h0.0" /><rect height="22" rx="10" ry="10" width="28.5" x="50" y="29"></rect><text x="64.25" y="44">[</text></g><path d="M78.5 40h10" /><path d="M88.5 40h10" /><g data-x="OneOrMore w:82.5 h:11/0/20">
<path d="M98.5 40h0.0" /><path d="M181.0 40h0.0" /><path d="M98.5 40h10" /><g class="non-terminal " data-x="NonTerminal w:62.5 h:11/0/11">
<path d="M108.5 40h0.0" /><path d="M171.0 40h0.0" /><rect height="22" width="62.5" x="108.5" y="29"></rect><text x="139.75" y="44">DIGIT</text></g><path d="M171.0 40h10" /><path d="M108.5 40a10 10 0 0 0 -10 10v0a10 10 0 0 0 10 10" /><g data-x="Skip w:0 h:0/0/0">
<path d="M108.5 60h62.5" /></g><path d="M171.0 60a10 10 0 0 0 10 -10v0a10 10 0 0 0 -10 -10" /></g><path d="M181.0 40h10" /><path d="M191.0 40h10" /><g class="non-terminal " data-x="NonTerminal w:164.5 h:11/0/11">
<path d="M201.0 40h0.0" /><path d="M365.5 40h0.0" /><rect height="22" width="164.5" x="201" y="29"></rect><text x="283.25" y="44">UPPER_CASE_LETTER</text></g><path d="M365.5 40h10" /><g data-x="Choice w:224.5 h:20/0/20">
<path d="M375.5 40h0.0" /><path d="M600.0 40h0.0" /><path d="M375.5 40a10 10 0 0 0 10 -10v0a10 10 0 0 1 10 -10" /><g data-x="Skip w:0 h:0/0/0">
<path d="M395.5 20h184.5" /></g><path d="M580.0 20a10 10 0 0 1 10 10v0a10 10 0 0 0 10 10" /><path d="M375.5 40h20" /><g data-x="OneOrMore w:184.5 h:11/0/20">
<path d="M395.5 40h0.0" /><path d="M580.0 40h0.0" /><path d="M395.5 40h10" /><g class="non-terminal " data-x="NonTerminal w:164.5 h:11/0/11">
<path d="M405.5 40h0.0" /><path d="M570.0 40h0.0" /><rect height="22" width="164.5" x="405.5" y="29"></rect><text x="487.75" y="44">LOWER_CASE_LETTER</text></g><path d="M570.0 40h10" /><path d="M405.5 40a10 10 0 0 0 -10 10v0a10 10 0 0 0 10 10" /><g data-x="Skip w:0 h:0/0/0">
<path d="M405.5 60h164.5" /></g><path d="M570.0 60a10 10 0 0 0 10 -10v0a10 10 0 0 0 -10 -10" /></g><path d="M580.0 40h20" /></g><g data-x="Choice w:122.5 h:20/0/20">
<path d="M600.0 40h0.0" /><path d="M722.5 40h0.0" /><path d="M600.0 40a10 10 0 0 0 10 -10v0a10 10 0 0 1 10 -10" /><g data-x="Skip w:0 h:0/0/0">
<path d="M620.0 20h82.5" /></g><path d="M702.5 20a10 10 0 0 1 10 10v0a10 10 0 0 0 10 10" /><path d="M600.0 40h20" /><g data-x="OneOrMore w:82.5 h:11/0/20">
<path d="M620.0 40h0.0" /><path d="M702.5 40h0.0" /><path d="M620.0 40h10" /><g class="non-terminal " data-x="NonTerminal w:62.5 h:11/0/11">
<path d="M630.0 40h0.0" /><path d="M692.5 40h0.0" /><rect height="22" width="62.5" x="630" y="29"></rect><text x="661.25" y="44">DIGIT</text></g><path d="M692.5 40h10" /><path d="M630.0 40a10 10 0 0 0 -10 10v0a10 10 0 0 0 10 10" /><g data-x="Skip w:0 h:0/0/0">
<path d="M630.0 60h62.5" /></g><path d="M692.5 60a10 10 0 0 0 10 -10v0a10 10 0 0 0 -10 -10" /></g><path d="M702.5 40h20" /></g><path d="M722.5 40h10" /><g class="terminal " data-x="Terminal w:28.5 h:11/0/11">
<path d="M732.5 40h0.0" /><path d="M761.0 40h0.0" /><rect height="22" rx="10" ry="10" width="28.5" x="732.5" y="29"></rect><text x="746.75" y="44">]</text></g></g><path d="M761.0 40h10" /><path d="M 771.0 40 h 20 m -10 -10 v 20 m 10 -20 v 20" data-x="End w:20 h:10/0/10"></path></g><style>/* <![CDATA[ */
	svg.railroad-diagram {
		background-color:hsl(30,20%,95%);
	}
	svg.railroad-diagram path {
		stroke-width:3;
		stroke:black;
		fill:rgba(0,0,0,0);
	}
	svg.railroad-diagram text {
		font:bold 14px monospace;
		text-anchor:middle;
	}
	svg.railroad-diagram text.label{
		text-anchor:start;
	}
	svg.railroad-diagram text.comment{
		font:italic 12px monospace;
	}
	svg.railroad-diagram rect{
		stroke-width:3;
		stroke:black;
		fill:hsl(120,100%,90%);
	}
	svg.railroad-diagram rect.group-box {
		stroke: gray;
		stroke-dasharray: 10 5;
		fill: none;
	}

/* ]]> */
</style></svg>