<svg class="railroad-diagram" height="88" viewBox="0 0 715.5 88" width="715.5"> <g transform="translate(.5 .5)"> <g> <path d="M20 38v20m10 -20v20m-10 -10h20" /></g><path d="M40 48h10" /><g> <path d="M50 48h0.0" /><path d="M665.5 48h0.0" /><g> <path d="M50.0 48h0.0" /><path d="M132.5 48h0.0" /><path d="M50.0 48h10" /><g class="non-terminal "> <path d="M60.0 48h0.0" /><path d="M122.5 48h0.0" /><rect height="22" width="62.5" x="60" y="37"></rect><text x="91.25" y="52">DIGIT</text></g><path d="M122.5 48h10" /><path d="M60.0 48a10 10 0 0 0 -10 10v0a10 10 0 0 0 10 10" /><g> <path d="M60.0 68h62.5" /></g><path d="M122.5 68a10 10 0 0 0 10 -10v0a10 10 0 0 0 -10 -10" /></g><path d="M132.5 48h10" /><g> <path d="M142.5 48h0.0" /><path d="M313.5 48h0.0" /><path d="M142.5 48a10 10 0 0 0 10 -10v0a10 10 0 0 1 10 -10" /><g> <path d="M162.5 28h131.0" /></g><path d="M293.5 28a10 10 0 0 1 10 10v0a10 10 0 0 0 10 10" /><path d="M142.5 48h20" /><g> <path d="M162.5 48h0.0" /><path d="M293.5 48h0.0" /><g class="terminal "> <path d="M162.5 48h0.0" /><path d="M191.0 48h0.0" /><rect height="22" rx="10" ry="10" width="28.5" x="162.5" y="37"></rect><text x="176.75" y="52">.</text></g><path d="M191.0 48h10" /><path d="M201.0 48h10" /><g> <path d="M211.0 48h0.0" /><path d="M293.5 48h0.0" /><path d="M211.0 48h10" /><g class="non-terminal "> <path d="M221.0 48h0.0" /><path d="M283.5 48h0.0" /><rect height="22" width="62.5" x="221" y="37"></rect><text x="252.25" y="52">DIGIT</text></g><path d="M283.5 48h10" /><path d="M221.0 48a10 10 0 0 0 -10 10v0a10 10 0 0 0 10 10" /><g> <path d="M221.0 68h62.5" /></g><path d="M283.5 68a10 10 0 0 0 10 -10v0a10 10 0 0 0 -10 -10" /></g></g><path d="M293.5 48h20" /></g><g> <path d="M313.5 48h0.0" /><path d="M665.5 48h0.0" /><path d="M313.5 48a10 10 0 0 0 10 -10v-8a10 10 0 0 1 10 -10" /><g> <path d="M333.5 20h312.0" /></g><path d="M645.5 20a10 10 0 0 1 10 10v8a10 10 0 0 0 10 10" /><path d="M313.5 48h20" /><g> <path d="M333.5 48h0.0" /><path d="M645.5 48h0.0" /><g class="terminal "> <path d="M333.5 48h0.0" /><path d="M362.0 48h0.0" /><rect height="22" rx="10" ry="10" width="28.5" x="333.5" y="37"></rect><text x="347.75" y="52">e</text></g><path d="M362.0 48h10" /><path d="M372.0 48h10" /><g> <path d="M382.0 48h0.0" /><path d="M464.5 48h0.0" /><path d="M382.0 48h10" /><g class="non-terminal "> <path d="M392.0 48h0.0" /><path d="M454.5 48h0.0" /><rect height="22" width="62.5" x="392" y="37"></rect><text x="423.25" y="52">DIGIT</text></g><path d="M454.5 48h10" /><path d="M392.0 48a10 10 0 0 0 -10 10v0a10 10 0 0 0 10 10" /><g> <path d="M392.0 68h62.5" /></g><path d="M454.5 68a10 10 0 0 0 10 -10v0a10 10 0 0 0 -10 -10" /></g><path d="M464.5 48h10" /><g> <path d="M474.5 48h0.0" /><path d="M645.5 48h0.0" /><path d="M474.5 48a10 10 0 0 0 10 -10v0a10 10 0 0 1 10 -10" /><g> <path d="M494.5 28h131.0" /></g><path d="M625.5 28a10 10 0 0 1 10 10v0a10 10 0 0 0 10 10" /><path d="M474.5 48h20" /><g> <path d="M494.5 48h0.0" /><path d="M625.5 48h0.0" /><g class="terminal "> <path d="M494.5 48h0.0" /><path d="M523.0 48h0.0" /><rect height="22" rx="10" ry="10" width="28.5" x="494.5" y="37"></rect><text x="508.75" y="52">.</text></g><path d="M523.0 48h10" /><path d="M533.0 48h10" /><g> <path d="M543.0 48h0.0" /><path d="M625.5 48h0.0" /><path d="M543.0 48h10" /><g class="non-terminal "> <path d="M553.0 48h0.0" /><path d="M615.5 48h0.0" /><rect height="22" width="62.5" x="553" y="37"></rect><text x="584.25" y="52">DIGIT</text></g><path d="M615.5 48h10" /><path d="M553.0 48a10 10 0 0 0 -10 10v0a10 10 0 0 0 10 10" /><g> <path d="M553.0 68h62.5" /></g><path d="M615.5 68a10 10 0 0 0 10 -10v0a10 10 0 0 0 -10 -10" /></g></g><path d="M625.5 48h20" /></g></g><path d="M645.5 48h20" /></g></g><path d="M665.5 48h10" /><path d="M 675.5 48 h 20 m -10 -10 v 20 m 10 -20 v 20"></path></g></svg>