<svg class="railroad-diagram" height="71" viewBox="0 0 182.5 71" width="182.5"> <g transform="translate(.5 .5)"> <g> <path d="M20 21v20m10 -20v20m-10 -10h20" /></g><path d="M40 31h10" /><g> <path d="M50 31h0.0" /><path d="M132.5 31h0.0" /><path d="M50.0 31h10" /><g class="non-terminal "> <path d="M60.0 31h0.0" /><path d="M122.5 31h0.0" /><rect height="22" width="62.5" x="60" y="20"></rect><text x="91.25" y="35">DIGIT</text></g><path d="M122.5 31h10" /><path d="M60.0 31a10 10 0 0 0 -10 10v0a10 10 0 0 0 10 10" /><g> <path d="M60.0 51h62.5" /></g><path d="M122.5 51a10 10 0 0 0 10 -10v0a10 10 0 0 0 -10 -10" /></g><path d="M132.5 31h10" /><path d="M 142.5 31 h 20 m -10 -10 v 20 m 10 -20 v 20"></path></g></svg>