<svg class="railroad-diagram" height="71" viewBox="0 0 182.5 71" width="182.5" xmlns="http://www.w3.org/2000/svg" xmlns:xlink="http://www.w3.org/1999/xlink">
<g transform="translate(.5 .5)">
<g data-x="Start w:20 h:10/0/10">
<path d="M20 21v20m10 -20v20m-10 -10h20" /></g><path d="M40 31h10" /><g data-x="OneOrMore w:82.5 h:11/0/20">
<path d="M50 31h0.0" /><path d="M132.5 31h0.0" /><path d="M50.0 31h10" /><g class="non-terminal " data-x="NonTerminal w:62.5 h:11/0/11">
<path d="M60.0 31h0.0" /><path d="M122.5 31h0.0" /><rect height="22" width="62.5" x="60" y="20"></rect><text x="91.25" y="35">DIGIT</text></g><path d="M122.5 31h10" /><path d="M60.0 31a10 10 0 0 0 -10 10v0a10 10 0 0 0 10 10" /><g data-x="Skip w:0 h:0/0/0">
<path d="M60.0 51h62.5" /></g><path d="M122.5 51a10 10 0 0 0 10 -10v0a10 10 0 0 0 -10 -10" /></g><path d="M132.5 31h10" /><path d="M 142.5 31 h 20 m -10 -10 v 20 m 10 -20 v 20" data-x="End w:20 h:10/0/10"></path></g><style>/* <![CDATA[ */
	svg.railroad-diagram {
		background-color:hsl(30,20%,95%);
	}
	svg.railroad-diagram path {
		stroke-width:3;
		stroke:black;
		fill:rgba(0,0,0,0);
	}
	svg.railroad-diagram text {
		font:bold 14px monospace;
		text-anchor:middle;
	}
	svg.railroad-diagram text.label{
		text-anchor:start;
	}
	svg.railroad-diagram text.comment{
		font:italic 12px monospace;
	}
	svg.railroad-diagram rect{
		stroke-width:3;
		stroke:black;
		fill:hsl(120,100%,90%);
	}
	svg.railroad-diagram rect.group-box {
		stroke: gray;
		stroke-dasharray: 10 5;
		fill: none;
	}

/* ]]> */
</style></svg>