<svg class="railroad-diagram" height="92" viewBox="0 0 148.5 92" width="148.5"> <g transform="translate(.5 .5)"> <g> <path d="M20 21v20m10 -20v20m-10 -10h20" /></g><g> <path d="M40 31h0.0" /><path d="M108.5 31h0.0" /><path d="M40.0 31h20" /><g class="terminal "> <path d="M60.0 31h0.0" /><path d="M88.5 31h0.0" /><rect height="22" rx="10" ry="10" width="28.5" x="60" y="20"></rect><text x="74.25" y="35">+</text></g><path d="M88.5 31h20" /><path d="M40.0 31a10 10 0 0 1 10 10v10a10 10 0 0 0 10 10" /><g class="terminal "> <path d="M60.0 61h0.0" /><path d="M88.5 61h0.0" /><rect height="22" rx="10" ry="10" width="28.5" x="60" y="50"></rect><text x="74.25" y="65">-</text></g><path d="M88.5 61a10 10 0 0 0 10 -10v-10a10 10 0 0 1 10 -10" /></g><path d="M 108.5 31 h 20 m -10 -10 v 20 m 10 -20 v 20"></path></g></svg>